<svg width="100%" height="100%" viewBox="0 0 117 17" fill="none" xmlns="http://www.w3.org/2000/svg">
  <path
    d="M9.933 3.8095C9.828 3.9775 9.716 4.1035 9.597 4.1875C9.485 4.2715 9.338 4.3135 9.156 4.3135C8.995 4.3135 8.82 4.2645 8.631 4.1665C8.449 4.0615 8.239 3.946 8.001 3.82C7.77 3.694 7.504 3.582 7.203 3.484C6.902 3.379 6.559 3.3265 6.174 3.3265C5.509 3.3265 5.012 3.47 4.683 3.757C4.361 4.037 4.2 4.4185 4.2 4.9015C4.2 5.2095 4.298 5.465 4.494 5.668C4.69 5.871 4.9455 6.046 5.2605 6.193C5.5825 6.34 5.9465 6.4765 6.3525 6.6025C6.7655 6.7215 7.1855 6.858 7.6125 7.012C8.0395 7.159 8.456 7.334 8.862 7.537C9.275 7.74 9.639 7.999 9.954 8.314C10.276 8.629 10.535 9.014 10.731 9.469C10.927 9.917 11.025 10.4595 11.025 11.0965C11.025 11.8035 10.9025 12.465 10.6575 13.081C10.4125 13.697 10.0555 14.236 9.5865 14.698C9.1245 15.153 8.5505 15.5135 7.8645 15.7795C7.1855 16.0385 6.412 16.168 5.544 16.168C5.068 16.168 4.5815 16.119 4.0845 16.021C3.5945 15.923 3.1185 15.7865 2.6565 15.6115C2.1945 15.4295 1.7605 15.216 1.3545 14.971C0.9485 14.726 0.595 14.453 0.294 14.152L1.344 12.493C1.428 12.374 1.5365 12.276 1.6695 12.199C1.8095 12.115 1.96 12.073 2.121 12.073C2.331 12.073 2.541 12.1395 2.751 12.2725C2.968 12.4055 3.2095 12.5525 3.4755 12.7135C3.7485 12.8745 4.06 13.0215 4.41 13.1545C4.76 13.2875 5.173 13.354 5.649 13.354C6.293 13.354 6.7935 13.214 7.1505 12.934C7.5075 12.647 7.686 12.1955 7.686 11.5795C7.686 11.2225 7.588 10.932 7.392 10.708C7.196 10.484 6.937 10.2985 6.615 10.1515C6.3 10.0045 5.9395 9.875 5.5335 9.763C5.1275 9.651 4.711 9.5285 4.284 9.3955C3.857 9.2555 3.4405 9.0875 3.0345 8.8915C2.6285 8.6885 2.2645 8.426 1.9425 8.104C1.6275 7.775 1.372 7.369 1.176 6.886C0.98 6.396 0.882 5.794 0.882 5.08C0.882 4.506 0.9975 3.946 1.2285 3.4C1.4595 2.854 1.799 2.3675 2.247 1.9405C2.695 1.5135 3.2445 1.174 3.8955 0.921999C4.5465 0.662999 5.292 0.533499 6.132 0.533499C6.601 0.533499 7.056 0.572 7.497 0.649C7.945 0.719 8.3685 0.827499 8.7675 0.974499C9.1665 1.1145 9.5375 1.286 9.8805 1.489C10.2305 1.685 10.542 1.909 10.815 2.161L9.933 3.8095ZM16.1543 16.168C15.6363 16.168 15.1778 16.0945 14.7788 15.9475C14.3868 15.7935 14.0543 15.58 13.7812 15.307C13.5153 15.027 13.3123 14.691 13.1723 14.299C13.0323 13.907 12.9623 13.4695 12.9623 12.9865V7.3585H12.0383C11.8703 7.3585 11.7268 7.306 11.6078 7.201C11.4888 7.089 11.4293 6.928 11.4293 6.718V5.4475L13.1618 5.1115L13.8023 2.455C13.8863 2.119 14.1243 1.951 14.5163 1.951H16.2173V5.1325H18.9158V7.3585H16.2173V12.766C16.2173 13.018 16.2768 13.228 16.3958 13.396C16.5218 13.557 16.7003 13.6375 16.9313 13.6375C17.0503 13.6375 17.1483 13.627 17.2253 13.606C17.3093 13.578 17.3793 13.55 17.4353 13.522C17.4983 13.487 17.5543 13.459 17.6033 13.438C17.6593 13.41 17.7223 13.396 17.7923 13.396C17.8903 13.396 17.9673 13.4205 18.0233 13.4695C18.0863 13.5115 18.1493 13.5815 18.2123 13.6795L19.1993 15.223C18.7793 15.538 18.3068 15.776 17.7818 15.937C17.2568 16.091 16.7143 16.168 16.1543 16.168ZM23.3633 6.7915C23.6993 6.2035 24.0843 5.7415 24.5183 5.4055C24.9593 5.0695 25.4633 4.9015 26.0303 4.9015C26.5203 4.9015 26.9193 5.017 27.2273 5.248L27.0173 7.642C26.9823 7.796 26.9228 7.901 26.8388 7.957C26.7618 8.013 26.6533 8.041 26.5133 8.041C26.4573 8.041 26.3838 8.0375 26.2928 8.0305C26.2018 8.0235 26.1073 8.0165 26.0093 8.0095C25.9113 7.9955 25.8098 7.985 25.7048 7.978C25.6068 7.964 25.5158 7.957 25.4318 7.957C24.9558 7.957 24.5743 8.083 24.2873 8.335C24.0073 8.587 23.7693 8.937 23.5733 9.385V16H20.3183V5.1115H22.2503C22.4113 5.1115 22.5443 5.1255 22.6493 5.1535C22.7613 5.1815 22.8523 5.227 22.9223 5.29C22.9993 5.346 23.0553 5.423 23.0903 5.521C23.1323 5.619 23.1673 5.738 23.1953 5.878L23.3633 6.7915ZM34.9248 9.2485C34.9248 8.9895 34.8898 8.7375 34.8198 8.4925C34.7568 8.2475 34.6483 8.0305 34.4943 7.8415C34.3473 7.6455 34.1513 7.488 33.9063 7.369C33.6613 7.25 33.3638 7.1905 33.0138 7.1905C32.3978 7.1905 31.9148 7.369 31.5648 7.726C31.2148 8.076 30.9838 8.5835 30.8718 9.2485H34.9248ZM30.8298 11.1385C30.9348 12.0485 31.2113 12.71 31.6593 13.123C32.1073 13.529 32.6848 13.732 33.3918 13.732C33.7698 13.732 34.0953 13.6865 34.3683 13.5955C34.6413 13.5045 34.8828 13.403 35.0928 13.291C35.3098 13.179 35.5058 13.0775 35.6808 12.9865C35.8628 12.8955 36.0518 12.85 36.2478 12.85C36.5068 12.85 36.7028 12.9445 36.8358 13.1335L37.7808 14.299C37.4448 14.684 37.0808 14.999 36.6888 15.244C36.3038 15.482 35.9048 15.671 35.4918 15.811C35.0858 15.944 34.6763 16.035 34.2633 16.084C33.8573 16.14 33.4688 16.168 33.0978 16.168C32.3348 16.168 31.6173 16.0455 30.9453 15.8005C30.2803 15.5485 29.6958 15.1775 29.1918 14.6875C28.6948 14.1975 28.2993 13.5885 28.0053 12.8605C27.7183 12.1325 27.5748 11.2855 27.5748 10.3195C27.5748 9.5915 27.6973 8.902 27.9423 8.251C28.1943 7.6 28.5513 7.0295 29.0133 6.5395C29.4823 6.0495 30.0458 5.661 30.7038 5.374C31.3688 5.087 32.1178 4.9435 32.9508 4.9435C33.6718 4.9435 34.3298 5.0555 34.9248 5.2795C35.5268 5.5035 36.0413 5.829 36.4683 6.256C36.9023 6.683 37.2383 7.208 37.4763 7.831C37.7213 8.447 37.8438 9.147 37.8438 9.931C37.8438 10.176 37.8333 10.3755 37.8123 10.5295C37.7913 10.6835 37.7528 10.806 37.6968 10.897C37.6408 10.988 37.5638 11.051 37.4658 11.086C37.3748 11.121 37.2558 11.1385 37.1088 11.1385H30.8298ZM45.0901 11.569C44.4391 11.597 43.9036 11.653 43.4836 11.737C43.0636 11.821 42.7311 11.926 42.4861 12.052C42.2411 12.178 42.0696 12.3215 41.9716 12.4825C41.8806 12.6435 41.8351 12.8185 41.8351 13.0075C41.8351 13.3785 41.9366 13.641 42.1396 13.795C42.3426 13.942 42.6401 14.0155 43.0321 14.0155C43.4521 14.0155 43.8196 13.942 44.1346 13.795C44.4496 13.648 44.7681 13.41 45.0901 13.081V11.569ZM39.2311 6.6235C39.8891 6.0425 40.6171 5.612 41.4151 5.332C42.2201 5.045 43.0811 4.9015 43.9981 4.9015C44.6561 4.9015 45.2476 5.01 45.7726 5.227C46.3046 5.437 46.7526 5.7345 47.1166 6.1195C47.4876 6.4975 47.7711 6.949 47.9671 7.474C48.1631 7.999 48.2611 8.573 48.2611 9.196V16H46.7701C46.4621 16 46.2276 15.958 46.0666 15.874C45.9126 15.79 45.7831 15.615 45.6781 15.349L45.4471 14.7505C45.1741 14.9815 44.9116 15.1845 44.6596 15.3595C44.4076 15.5345 44.1451 15.685 43.8721 15.811C43.6061 15.93 43.3191 16.0175 43.0111 16.0735C42.7101 16.1365 42.3741 16.168 42.0031 16.168C41.5061 16.168 41.0546 16.105 40.6486 15.979C40.2426 15.846 39.8961 15.6535 39.6091 15.4015C39.3291 15.1495 39.1121 14.838 38.9581 14.467C38.8041 14.089 38.7271 13.655 38.7271 13.165C38.7271 12.773 38.8251 12.3775 39.0211 11.9785C39.2171 11.5725 39.5566 11.205 40.0396 10.876C40.5226 10.54 41.1736 10.26 41.9926 10.036C42.8116 9.812 43.8441 9.686 45.0901 9.658V9.196C45.0901 8.559 44.9571 8.1005 44.6911 7.8205C44.4321 7.5335 44.0611 7.39 43.5781 7.39C43.1931 7.39 42.8781 7.432 42.6331 7.516C42.3881 7.6 42.1676 7.6945 41.9716 7.7995C41.7826 7.9045 41.5971 7.999 41.4151 8.083C41.2331 8.167 41.0161 8.209 40.7641 8.209C40.5401 8.209 40.3511 8.153 40.1971 8.041C40.0431 7.929 39.9171 7.796 39.8191 7.642L39.2311 6.6235ZM50.3418 16V5.1115H52.3578C52.7638 5.1115 53.0298 5.2935 53.1558 5.6575L53.3343 6.2455C53.5163 6.0565 53.7053 5.885 53.9013 5.731C54.0973 5.57 54.3073 5.4335 54.5313 5.3215C54.7623 5.2025 55.0073 5.1115 55.2663 5.0485C55.5323 4.9785 55.8228 4.9435 56.1378 4.9435C56.7958 4.9435 57.3383 5.115 57.7653 5.458C58.1993 5.794 58.5283 6.2455 58.7523 6.8125C58.9343 6.4765 59.1548 6.1895 59.4138 5.9515C59.6798 5.7135 59.9633 5.521 60.2643 5.374C60.5723 5.227 60.8943 5.1185 61.2303 5.0485C61.5733 4.9785 61.9128 4.9435 62.2488 4.9435C62.8718 4.9435 63.4248 5.038 63.9078 5.227C64.3908 5.409 64.7933 5.6785 65.1153 6.0355C65.4443 6.3855 65.6928 6.8195 65.8608 7.3375C66.0288 7.8485 66.1128 8.4295 66.1128 9.0805V16H62.8578V9.0805C62.8578 7.9535 62.3748 7.39 61.4088 7.39C60.9678 7.39 60.6003 7.537 60.3063 7.831C60.0193 8.118 59.8758 8.5345 59.8758 9.0805V16H56.6208V9.0805C56.6208 8.4575 56.4983 8.02 56.2533 7.768C56.0083 7.516 55.6478 7.39 55.1718 7.39C54.8778 7.39 54.5978 7.4565 54.3318 7.5895C54.0728 7.7225 53.8278 7.901 53.5968 8.125V16H50.3418ZM83.7534 12.0415C83.8374 12.0415 83.9214 12.059 84.0054 12.094C84.0894 12.122 84.1699 12.1745 84.2469 12.2515L85.6539 13.732C85.0379 14.537 84.2644 15.146 83.3334 15.559C82.4094 15.965 81.3139 16.168 80.0469 16.168C78.8849 16.168 77.8419 15.972 76.9179 15.58C76.0009 15.181 75.2204 14.635 74.5764 13.942C73.9394 13.242 73.4494 12.416 73.1064 11.464C72.7634 10.505 72.5919 9.4655 72.5919 8.3455C72.5919 7.2045 72.7774 6.158 73.1484 5.206C73.5194 4.247 74.0409 3.421 74.7129 2.728C75.3849 2.035 76.1899 1.496 77.1279 1.111C78.0659 0.725999 79.0984 0.533499 80.2254 0.533499C80.7994 0.533499 81.3384 0.585999 81.8424 0.690999C82.3534 0.788999 82.8294 0.928999 83.2704 1.111C83.7114 1.286 84.1174 1.4995 84.4884 1.7515C84.8594 2.0035 85.1884 2.2765 85.4754 2.5705L84.2784 4.177C84.2014 4.275 84.1104 4.366 84.0054 4.45C83.9004 4.527 83.7534 4.5655 83.5644 4.5655C83.4384 4.5655 83.3194 4.5375 83.2074 4.4815C83.0954 4.4255 82.9764 4.359 82.8504 4.282C82.7244 4.198 82.5844 4.1105 82.4304 4.0195C82.2834 3.9215 82.1049 3.834 81.8949 3.757C81.6919 3.673 81.4504 3.603 81.1704 3.547C80.8974 3.491 80.5754 3.463 80.2044 3.463C79.6164 3.463 79.0774 3.5715 78.5874 3.7885C78.1044 4.0055 77.6844 4.324 77.3274 4.744C76.9774 5.157 76.7044 5.668 76.5084 6.277C76.3194 6.879 76.2249 7.5685 76.2249 8.3455C76.2249 9.1295 76.3299 9.826 76.5399 10.435C76.7569 11.044 77.0474 11.5585 77.4114 11.9785C77.7824 12.3915 78.2129 12.7065 78.7029 12.9235C79.1929 13.1405 79.7179 13.249 80.2779 13.249C80.5999 13.249 80.8939 13.235 81.1599 13.207C81.4259 13.172 81.6744 13.1195 81.9054 13.0495C82.1364 12.9725 82.3534 12.8745 82.5564 12.7555C82.7594 12.6295 82.9659 12.472 83.1759 12.283C83.2599 12.213 83.3509 12.157 83.4489 12.115C83.5469 12.066 83.6484 12.0415 83.7534 12.0415ZM90.0802 6.067C90.4722 5.731 90.8957 5.4615 91.3507 5.2585C91.8127 5.0485 92.3622 4.9435 92.9992 4.9435C93.5942 4.9435 94.1192 5.0485 94.5742 5.2585C95.0362 5.4615 95.4247 5.7485 95.7397 6.1195C96.0547 6.4835 96.2927 6.921 96.4537 7.432C96.6147 7.936 96.6952 8.4855 96.6952 9.0805V16H93.4402V9.0805C93.4402 8.5485 93.3177 8.1355 93.0727 7.8415C92.8277 7.5405 92.4672 7.39 91.9912 7.39C91.6342 7.39 91.2982 7.467 90.9832 7.621C90.6752 7.768 90.3742 7.971 90.0802 8.23V16H86.8252V0.281499H90.0802V6.067ZM104.419 11.569C103.768 11.597 103.233 11.653 102.813 11.737C102.393 11.821 102.06 11.926 101.815 12.052C101.57 12.178 101.399 12.3215 101.301 12.4825C101.21 12.6435 101.164 12.8185 101.164 13.0075C101.164 13.3785 101.266 13.641 101.469 13.795C101.672 13.942 101.969 14.0155 102.361 14.0155C102.781 14.0155 103.149 13.942 103.464 13.795C103.779 13.648 104.097 13.41 104.419 13.081V11.569ZM98.5602 6.6235C99.2182 6.0425 99.9462 5.612 100.744 5.332C101.549 5.045 102.41 4.9015 103.327 4.9015C103.985 4.9015 104.577 5.01 105.102 5.227C105.634 5.437 106.082 5.7345 106.446 6.1195C106.817 6.4975 107.1 6.949 107.296 7.474C107.492 7.999 107.59 8.573 107.59 9.196V16H106.099C105.791 16 105.557 15.958 105.396 15.874C105.242 15.79 105.112 15.615 105.007 15.349L104.776 14.7505C104.503 14.9815 104.241 15.1845 103.989 15.3595C103.737 15.5345 103.474 15.685 103.201 15.811C102.935 15.93 102.648 16.0175 102.34 16.0735C102.039 16.1365 101.703 16.168 101.332 16.168C100.835 16.168 100.384 16.105 99.9777 15.979C99.5717 15.846 99.2252 15.6535 98.9382 15.4015C98.6582 15.1495 98.4412 14.838 98.2872 14.467C98.1332 14.089 98.0562 13.655 98.0562 13.165C98.0562 12.773 98.1542 12.3775 98.3502 11.9785C98.5462 11.5725 98.8857 11.205 99.3687 10.876C99.8517 10.54 100.503 10.26 101.322 10.036C102.141 9.812 103.173 9.686 104.419 9.658V9.196C104.419 8.559 104.286 8.1005 104.02 7.8205C103.761 7.5335 103.39 7.39 102.907 7.39C102.522 7.39 102.207 7.432 101.962 7.516C101.717 7.6 101.497 7.6945 101.301 7.7995C101.112 7.9045 100.926 7.999 100.744 8.083C100.562 8.167 100.345 8.209 100.093 8.209C99.8692 8.209 99.6802 8.153 99.5262 8.041C99.3722 7.929 99.2462 7.796 99.1482 7.642L98.5602 6.6235ZM113.402 16.168C112.884 16.168 112.426 16.0945 112.027 15.9475C111.635 15.7935 111.302 15.58 111.029 15.307C110.763 15.027 110.56 14.691 110.42 14.299C110.28 13.907 110.21 13.4695 110.21 12.9865V7.3585H109.286C109.118 7.3585 108.975 7.306 108.856 7.201C108.737 7.089 108.677 6.928 108.677 6.718V5.4475L110.41 5.1115L111.05 2.455C111.134 2.119 111.372 1.951 111.764 1.951H113.465V5.1325H116.164V7.3585H113.465V12.766C113.465 13.018 113.525 13.228 113.644 13.396C113.77 13.557 113.948 13.6375 114.179 13.6375C114.298 13.6375 114.396 13.627 114.473 13.606C114.557 13.578 114.627 13.55 114.683 13.522C114.746 13.487 114.802 13.459 114.851 13.438C114.907 13.41 114.97 13.396 115.04 13.396C115.138 13.396 115.215 13.4205 115.271 13.4695C115.334 13.5115 115.397 13.5815 115.46 13.6795L116.447 15.223C116.027 15.538 115.555 15.776 115.03 15.937C114.505 16.091 113.962 16.168 113.402 16.168Z"
    fill="#4F46E5" />
</svg>
